<?xml version="1.0" encoding="us-ascii" standalone="no"?><svg xmlns="http://www.w3.org/2000/svg" xmlns:xlink="http://www.w3.org/1999/xlink" contentStyleType="text/css" height="310px" preserveAspectRatio="none" style="width:660px;height:310px;background:#FFFFFF;" version="1.1" viewBox="0 0 660 310" width="660px" zoomAndPan="magnify"><defs/><g><!--class PizzaApp--><g id="elem_PizzaApp"><rect codeLine="1" fill="#F1F1F1" height="48" id="PizzaApp" rx="2.5" ry="2.5" style="stroke:#181818;stroke-width:0.5;" width="99" x="306.5" y="7"/><ellipse cx="321.5" cy="23" fill="#ADD1B2" rx="11" ry="11" style="stroke:#181818;stroke-width:1.0;"/><path d="M323.8438,18.6719 C322.9063,18.2344 322.3125,18.0938 321.4375,18.0938 C318.8125,18.0938 316.8125,20.1719 316.8125,22.8906 L316.8125,24.0156 C316.8125,26.5938 318.9219,28.4844 321.8125,28.4844 C323.0313,28.4844 324.1875,28.1875 324.9375,27.6406 C325.5156,27.2344 325.8438,26.7813 325.8438,26.3906 C325.8438,25.9375 325.4531,25.5469 324.9844,25.5469 C324.7656,25.5469 324.5625,25.625 324.375,25.8125 C323.9219,26.2969 323.9219,26.2969 323.7344,26.3906 C323.3125,26.6563 322.625,26.7813 321.8594,26.7813 C319.8125,26.7813 318.5156,25.6875 318.5156,23.9844 L318.5156,22.8906 C318.5156,21.1094 319.7656,19.7969 321.5,19.7969 C322.0781,19.7969 322.6875,19.9531 323.1563,20.2031 C323.6406,20.4844 323.8125,20.7031 323.9063,21.1094 C323.9688,21.5156 324,21.6406 324.1406,21.7656 C324.2813,21.9063 324.5156,22.0156 324.7344,22.0156 C325,22.0156 325.2656,21.875 325.4375,21.6563 C325.5469,21.5 325.5781,21.3125 325.5781,20.8906 L325.5781,19.4688 C325.5781,19.0313 325.5625,18.9063 325.4688,18.75 C325.3125,18.4844 325.0313,18.3438 324.7344,18.3438 C324.4375,18.3438 324.2344,18.4375 324.0156,18.75 L323.8438,18.6719 Z " fill="#000000"/><text fill="#000000" font-family="sans-serif" font-size="14" lengthAdjust="spacing" textLength="67" x="335.5" y="27.8467">PizzaApp</text><line style="stroke:#181818;stroke-width:0.5;" x1="307.5" x2="404.5" y1="39" y2="39"/><line style="stroke:#181818;stroke-width:0.5;" x1="307.5" x2="404.5" y1="47" y2="47"/></g><!--class DataBaseManager--><g id="elem_DataBaseManager"><rect codeLine="2" fill="#F1F1F1" height="64.2969" id="DataBaseManager" rx="2.5" ry="2.5" style="stroke:#181818;stroke-width:0.5;" width="218" x="7" y="239"/><ellipse cx="47.65" cy="255" fill="#ADD1B2" rx="11" ry="11" style="stroke:#181818;stroke-width:1.0;"/><path d="M49.9938,250.6719 C49.0563,250.2344 48.4625,250.0938 47.5875,250.0938 C44.9625,250.0938 42.9625,252.1719 42.9625,254.8906 L42.9625,256.0156 C42.9625,258.5938 45.0719,260.4844 47.9625,260.4844 C49.1813,260.4844 50.3375,260.1875 51.0875,259.6406 C51.6656,259.2344 51.9938,258.7813 51.9938,258.3906 C51.9938,257.9375 51.6031,257.5469 51.1344,257.5469 C50.9156,257.5469 50.7125,257.625 50.525,257.8125 C50.0719,258.2969 50.0719,258.2969 49.8844,258.3906 C49.4625,258.6563 48.775,258.7813 48.0094,258.7813 C45.9625,258.7813 44.6656,257.6875 44.6656,255.9844 L44.6656,254.8906 C44.6656,253.1094 45.9156,251.7969 47.65,251.7969 C48.2281,251.7969 48.8375,251.9531 49.3063,252.2031 C49.7906,252.4844 49.9625,252.7031 50.0563,253.1094 C50.1188,253.5156 50.15,253.6406 50.2906,253.7656 C50.4313,253.9063 50.6656,254.0156 50.8844,254.0156 C51.15,254.0156 51.4156,253.875 51.5875,253.6563 C51.6969,253.5 51.7281,253.3125 51.7281,252.8906 L51.7281,251.4688 C51.7281,251.0313 51.7125,250.9063 51.6188,250.75 C51.4625,250.4844 51.1813,250.3438 50.8844,250.3438 C50.5875,250.3438 50.3844,250.4375 50.1656,250.75 L49.9938,250.6719 Z " fill="#000000"/><text fill="#000000" font-family="sans-serif" font-size="14" lengthAdjust="spacing" textLength="129" x="67.35" y="259.8467">DataBaseManager</text><line style="stroke:#181818;stroke-width:0.5;" x1="8" x2="224" y1="271" y2="271"/><line style="stroke:#181818;stroke-width:0.5;" x1="8" x2="224" y1="279" y2="279"/><ellipse cx="18" cy="292.6484" fill="#84BE84" rx="3" ry="3" style="stroke:#038048;stroke-width:1.0;"/><text fill="#000000" font-family="sans-serif" font-size="14" lengthAdjust="spacing" textLength="192" x="27" y="295.9951">__init__(connection_string)</text></g><!--class Authenticator--><g id="elem_Authenticator"><rect codeLine="5" fill="#F1F1F1" height="64.2969" id="Authenticator" rx="2.5" ry="2.5" style="stroke:#181818;stroke-width:0.5;" width="191" x="260.5" y="239"/><ellipse cx="301.6" cy="255" fill="#ADD1B2" rx="11" ry="11" style="stroke:#181818;stroke-width:1.0;"/><path d="M303.9438,250.6719 C303.0063,250.2344 302.4125,250.0938 301.5375,250.0938 C298.9125,250.0938 296.9125,252.1719 296.9125,254.8906 L296.9125,256.0156 C296.9125,258.5938 299.0219,260.4844 301.9125,260.4844 C303.1313,260.4844 304.2875,260.1875 305.0375,259.6406 C305.6156,259.2344 305.9438,258.7813 305.9438,258.3906 C305.9438,257.9375 305.5531,257.5469 305.0844,257.5469 C304.8656,257.5469 304.6625,257.625 304.475,257.8125 C304.0219,258.2969 304.0219,258.2969 303.8344,258.3906 C303.4125,258.6563 302.725,258.7813 301.9594,258.7813 C299.9125,258.7813 298.6156,257.6875 298.6156,255.9844 L298.6156,254.8906 C298.6156,253.1094 299.8656,251.7969 301.6,251.7969 C302.1781,251.7969 302.7875,251.9531 303.2563,252.2031 C303.7406,252.4844 303.9125,252.7031 304.0063,253.1094 C304.0688,253.5156 304.1,253.6406 304.2406,253.7656 C304.3813,253.9063 304.6156,254.0156 304.8344,254.0156 C305.1,254.0156 305.3656,253.875 305.5375,253.6563 C305.6469,253.5 305.6781,253.3125 305.6781,252.8906 L305.6781,251.4688 C305.6781,251.0313 305.6625,250.9063 305.5688,250.75 C305.4125,250.4844 305.1313,250.3438 304.8344,250.3438 C304.5375,250.3438 304.3344,250.4375 304.1156,250.75 L303.9438,250.6719 Z " fill="#000000"/><text fill="#000000" font-family="sans-serif" font-size="14" lengthAdjust="spacing" textLength="101" x="321.4" y="259.8467">Authenticator</text><line style="stroke:#181818;stroke-width:0.5;" x1="261.5" x2="450.5" y1="271" y2="271"/><line style="stroke:#181818;stroke-width:0.5;" x1="261.5" x2="450.5" y1="279" y2="279"/><ellipse cx="271.5" cy="292.6484" fill="#84BE84" rx="3" ry="3" style="stroke:#038048;stroke-width:1.0;"/><text fill="#000000" font-family="sans-serif" font-size="14" lengthAdjust="spacing" textLength="165" x="280.5" y="295.9951">__init__(user_database)</text></g><!--class PaymentProcessor--><g id="elem_PaymentProcessor"><rect codeLine="8" fill="#F1F1F1" height="64.2969" id="PaymentProcessor" rx="2.5" ry="2.5" style="stroke:#181818;stroke-width:0.5;" width="166" x="487" y="239"/><ellipse cx="502" cy="255" fill="#ADD1B2" rx="11" ry="11" style="stroke:#181818;stroke-width:1.0;"/><path d="M504.3438,250.6719 C503.4063,250.2344 502.8125,250.0938 501.9375,250.0938 C499.3125,250.0938 497.3125,252.1719 497.3125,254.8906 L497.3125,256.0156 C497.3125,258.5938 499.4219,260.4844 502.3125,260.4844 C503.5313,260.4844 504.6875,260.1875 505.4375,259.6406 C506.0156,259.2344 506.3438,258.7813 506.3438,258.3906 C506.3438,257.9375 505.9531,257.5469 505.4844,257.5469 C505.2656,257.5469 505.0625,257.625 504.875,257.8125 C504.4219,258.2969 504.4219,258.2969 504.2344,258.3906 C503.8125,258.6563 503.125,258.7813 502.3594,258.7813 C500.3125,258.7813 499.0156,257.6875 499.0156,255.9844 L499.0156,254.8906 C499.0156,253.1094 500.2656,251.7969 502,251.7969 C502.5781,251.7969 503.1875,251.9531 503.6563,252.2031 C504.1406,252.4844 504.3125,252.7031 504.4063,253.1094 C504.4688,253.5156 504.5,253.6406 504.6406,253.7656 C504.7813,253.9063 505.0156,254.0156 505.2344,254.0156 C505.5,254.0156 505.7656,253.875 505.9375,253.6563 C506.0469,253.5 506.0781,253.3125 506.0781,252.8906 L506.0781,251.4688 C506.0781,251.0313 506.0625,250.9063 505.9688,250.75 C505.8125,250.4844 505.5313,250.3438 505.2344,250.3438 C504.9375,250.3438 504.7344,250.4375 504.5156,250.75 L504.3438,250.6719 Z " fill="#000000"/><text fill="#000000" font-family="sans-serif" font-size="14" lengthAdjust="spacing" textLength="134" x="516" y="259.8467">PaymentProcessor</text><line style="stroke:#181818;stroke-width:0.5;" x1="488" x2="652" y1="271" y2="271"/><line style="stroke:#181818;stroke-width:0.5;" x1="488" x2="652" y1="279" y2="279"/><ellipse cx="498" cy="292.6484" fill="#84BE84" rx="3" ry="3" style="stroke:#038048;stroke-width:1.0;"/><text fill="#000000" font-family="sans-serif" font-size="14" lengthAdjust="spacing" textLength="117" x="507" y="295.9951">__init__(api_key)</text></g><!--class OrderManager--><g id="elem_OrderManager"><rect codeLine="11" fill="#F1F1F1" height="64.2969" id="OrderManager" rx="2.5" ry="2.5" style="stroke:#181818;stroke-width:0.5;" width="482" x="115" y="115"/><ellipse cx="300.75" cy="131" fill="#ADD1B2" rx="11" ry="11" style="stroke:#181818;stroke-width:1.0;"/><path d="M303.0938,126.6719 C302.1563,126.2344 301.5625,126.0938 300.6875,126.0938 C298.0625,126.0938 296.0625,128.1719 296.0625,130.8906 L296.0625,132.0156 C296.0625,134.5938 298.1719,136.4844 301.0625,136.4844 C302.2813,136.4844 303.4375,136.1875 304.1875,135.6406 C304.7656,135.2344 305.0938,134.7813 305.0938,134.3906 C305.0938,133.9375 304.7031,133.5469 304.2344,133.5469 C304.0156,133.5469 303.8125,133.625 303.625,133.8125 C303.1719,134.2969 303.1719,134.2969 302.9844,134.3906 C302.5625,134.6563 301.875,134.7813 301.1094,134.7813 C299.0625,134.7813 297.7656,133.6875 297.7656,131.9844 L297.7656,130.8906 C297.7656,129.1094 299.0156,127.7969 300.75,127.7969 C301.3281,127.7969 301.9375,127.9531 302.4063,128.2031 C302.8906,128.4844 303.0625,128.7031 303.1563,129.1094 C303.2188,129.5156 303.25,129.6406 303.3906,129.7656 C303.5313,129.9063 303.7656,130.0156 303.9844,130.0156 C304.25,130.0156 304.5156,129.875 304.6875,129.6563 C304.7969,129.5 304.8281,129.3125 304.8281,128.8906 L304.8281,127.4688 C304.8281,127.0313 304.8125,126.9063 304.7188,126.75 C304.5625,126.4844 304.2813,126.3438 303.9844,126.3438 C303.6875,126.3438 303.4844,126.4375 303.2656,126.75 L303.0938,126.6719 Z " fill="#000000"/><text fill="#000000" font-family="sans-serif" font-size="14" lengthAdjust="spacing" textLength="102" x="321.25" y="135.8467">OrderManager</text><line style="stroke:#181818;stroke-width:0.5;" x1="116" x2="596" y1="147" y2="147"/><line style="stroke:#181818;stroke-width:0.5;" x1="116" x2="596" y1="155" y2="155"/><ellipse cx="126" cy="168.6484" fill="#84BE84" rx="3" ry="3" style="stroke:#038048;stroke-width:1.0;"/><text fill="#000000" font-family="sans-serif" font-size="14" lengthAdjust="spacing" textLength="456" x="135" y="171.9951">__init__(database_manager, authenticator, payment_processor)</text></g><!--link PizzaApp to OrderManager--><g id="link_PizzaApp_OrderManager"><path codeLine="15" d="M356,55.07 C356,72.246 356,89.884 356,108.755 " fill="none" id="PizzaApp-to-OrderManager" style="stroke:#181818;stroke-width:1.0;"/><polygon fill="#181818" points="356,114.755,360,105.755,356,109.755,352,105.755,356,114.755" style="stroke:#181818;stroke-width:1.0;"/></g><!--link OrderManager to DataBaseManager--><g id="link_OrderManager_DataBaseManager"><path codeLine="16" d="M294.817,179.101 C258.708,197.457 218.5086,217.8912 182.4196,236.2365 " fill="none" id="OrderManager-to-DataBaseManager" style="stroke:#181818;stroke-width:1.0;"/><polygon fill="#181818" points="177.071,238.9554,186.9065,238.4428,181.5282,236.6897,183.2813,231.3113,177.071,238.9554" style="stroke:#181818;stroke-width:1.0;"/></g><!--link OrderManager to Authenticator--><g id="link_OrderManager_Authenticator"><path codeLine="17" d="M356,179.101 C356,197.457 356,214.6101 356,232.9554 " fill="none" id="OrderManager-to-Authenticator" style="stroke:#181818;stroke-width:1.0;"/><polygon fill="#181818" points="356,238.9554,360,229.9554,356,233.9554,352,229.9554,356,238.9554" style="stroke:#181818;stroke-width:1.0;"/></g><!--link OrderManager to PaymentProcessor--><g id="link_OrderManager_PaymentProcessor"><path codeLine="18" d="M410.555,179.101 C442.752,197.457 478.1525,217.6386 510.3325,235.9839 " fill="none" id="OrderManager-to-PaymentProcessor" style="stroke:#181818;stroke-width:1.0;"/><polygon fill="#181818" points="515.545,238.9554,509.7073,231.0231,511.2013,236.4791,505.7453,237.9731,515.545,238.9554" style="stroke:#181818;stroke-width:1.0;"/></g><!--SRC=[RP113e9034NtSuekDS8LJ31kZToWAKE3ZJ8pcHaMOBox8184N3Q___t-wWU50Bbq7MNEAVqPpnJfH84lPAXY3qy5S40K8n5nfwqnhADOWo5wCTLUlRx6h8atDb4qHRksDO4zbZsvwCcp9QUsxYsvjvf3sBZ82TwvdVUllcJ__x09ZlKe9q2_zoJWnYnqKzY0LLDvIDFZ0gyMMOEwUinsOV60hRmk-mO0]--></g></svg>